<?xml version="1.0" encoding="utf-8"?>
<!-- Generator: Adobe Illustrator 25.0.0, SVG Export Plug-In . SVG Version: 6.00 Build 0)  -->
<svg version="1.1" id="Camada_1" xmlns="http://www.w3.org/2000/svg" xmlns:xlink="http://www.w3.org/1999/xlink" x="0px" y="0px"
	 viewBox="0 0 800 800" style="enable-background:new 0 0 800 800;" xml:space="preserve">
<style type="text/css">
	.st0{opacity:0.5;fill:#9AC197;enable-background:new    ;}
	.st1{fill:#4A6A48;}
</style>
<path class="st0" d="M733.3,400c0,184.1-149.2,333.3-333.3,333.3C215.9,733.3,66.7,584.1,66.7,400C66.7,215.9,215.9,66.7,400,66.7
	C584.1,66.7,733.3,215.9,733.3,400z"/>
<path class="st1" d="M299,299c9.8-9.8,25.6-9.8,35.4,0l65.7,65.7l65.7-65.7c9.8-9.8,25.6-9.8,35.4,0s9.8,25.6,0,35.4L435.4,400
	l65.7,65.7c9.8,9.8,9.8,25.6,0,35.4s-25.6,9.8-35.4,0L400,435.4L334.3,501c-9.8,9.8-25.6,9.8-35.4,0s-9.8-25.6,0-35.4l65.7-65.7
	L299,334.3C289.2,324.6,289.2,308.8,299,299z"/>
</svg>
