<svg id="Camada_1" data-name="Camada 1" xmlns="http://www.w3.org/2000/svg" xmlns:xlink="http://www.w3.org/1999/xlink" viewBox="0 0 2771.96 2774.84"><defs><style>.cls-1{fill:#c7dbc6;}.cls-2{fill:#9ac097;}.cls-3{opacity:0.52;}.cls-4,.cls-6{fill:#deeadc;}.cls-5{opacity:0.5;}.cls-6{opacity:0.57;isolation:isolate;}.cls-7{fill:#4a6a48;}.cls-8{fill:#889e85;}.cls-9{fill:#9c97bf;}.cls-10{fill:#7974ba;}.cls-11{fill:#402d21;}.cls-12{fill:#ffaf83;}.cls-13{fill:url(#Gradiente_sem_nome_36);}.cls-14{fill:url(#Gradiente_sem_nome_38);}.cls-15{fill:#563b2e;}.cls-16{fill:#7c5641;}.cls-17{fill:url(#Gradiente_sem_nome_42);}.cls-18{fill:url(#Gradiente_sem_nome_45);}.cls-19{fill:url(#Gradiente_sem_nome_47);}.cls-20{fill:url(#Gradiente_sem_nome_48);}.cls-21{fill:url(#Gradiente_sem_nome_49);}.cls-22{fill:url(#Gradiente_sem_nome_50);}.cls-23{fill:#8080af;}.cls-24{fill:url(#Gradiente_sem_nome_56);}.cls-25{fill:#bab7e2;}</style><linearGradient id="Gradiente_sem_nome_36" x1="-1450.03" y1="669.66" x2="-1472.69" y2="471.95" gradientTransform="matrix(1, 0, 0, -1, 2420.6, 3710)" gradientUnits="userSpaceOnUse"><stop offset="0" stop-color="#febbba"/><stop offset="1" stop-color="#ff928e"/></linearGradient><linearGradient id="Gradiente_sem_nome_38" x1="-1073.73" y1="835.26" x2="-1096.39" y2="637.54" gradientTransform="matrix(1, -0.06, -0.06, -1, 2276.14, 3827.27)" xlink:href="#Gradiente_sem_nome_36"/><linearGradient id="Gradiente_sem_nome_42" x1="-1359.65" y1="1822.04" x2="-1307.04" y2="1965.72" xlink:href="#Gradiente_sem_nome_36"/><linearGradient id="Gradiente_sem_nome_45" x1="-1230.33" y1="2037.57" x2="-1543.83" y2="1787.88" xlink:href="#Gradiente_sem_nome_36"/><linearGradient id="Gradiente_sem_nome_47" x1="-1261.88" y1="2051.25" x2="-1416.17" y2="1933.2" xlink:href="#Gradiente_sem_nome_36"/><linearGradient id="Gradiente_sem_nome_48" x1="105.17" y1="1973.26" x2="431.83" y2="1691.09" gradientTransform="translate(1629.04 3710) rotate(180)" xlink:href="#Gradiente_sem_nome_36"/><linearGradient id="Gradiente_sem_nome_49" x1="98.36" y1="1946.95" x2="416.34" y2="1672.28" gradientTransform="translate(1629.04 3710) rotate(180)" xlink:href="#Gradiente_sem_nome_36"/><linearGradient id="Gradiente_sem_nome_50" x1="93.08" y1="1959.26" x2="419.74" y2="1677.09" gradientTransform="translate(1629.04 3710) rotate(180)" xlink:href="#Gradiente_sem_nome_36"/><linearGradient id="Gradiente_sem_nome_56" x1="-354.66" y1="-118.98" x2="-748.92" y2="-804.04" gradientTransform="matrix(0.95, -0.32, -0.32, -0.95, 1627.24, 1756.45)" xlink:href="#Gradiente_sem_nome_36"/></defs><g id="Illustration"><path class="cls-1" d="M2910.68,2824.46c-56.73,58.79-110.41,96.7-152.82,126.65C2259.3,3303.2,1669.39,3200.57,1544,3175.51c-185.14-37-543-108.56-801.74-408-391.44-453.09-330.49-1166.92-26.86-1638.12,55.54-86.2,348.91-564.58,945.18-641.3,360.86-46.43,781.5,47.21,1086.12,298.41C3386.14,1313.74,3340.61,2379,2910.68,2824.46Z" transform="translate(-468.03 -456.82)"/><path class="cls-2" d="M996.65,1243.76c.26-13.32,11.46-24,25.18-24h832.25c13.91,0,28.68,11,28.68,24.55V3130.62c0,10.08-5.88,19.75-13.23,26.87s-18.19,11.1-28.57,11.07l-841.37-2.23a40.15,40.15,0,0,1-28-11.4,37.49,37.49,0,0,1-11.25-27.28Z" transform="translate(-468.03 -456.82)"/><g class="cls-3"><polygon class="cls-4" points="1006.58 896.58 1278.83 895.67 1278.72 862.59 1006.78 863.42 1006.58 896.58"/><polygon class="cls-4" points="1005.83 1018.44 1279.2 1017.23 1279.1 983.87 1006.03 985 1005.83 1018.44"/><polygon class="cls-4" points="1005.08 1141.29 1279.58 1139.78 1279.47 1106.15 1005.28 1107.58 1005.08 1141.29"/><polygon class="cls-4" points="1004.32 1265.17 1279.95 1263.36 1279.85 1229.45 1004.52 1231.18 1004.32 1265.17"/><polygon class="cls-4" points="1003.55 1390.09 1280.34 1387.96 1280.23 1353.77 1003.76 1355.81 1003.55 1390.09"/><polygon class="cls-4" points="1002 1643.06 1281.11 1640.29 1281.01 1605.52 1002.22 1608.2 1002 1643.06"/><polygon class="cls-4" points="999.63 2030.59 1282.3 2026.82 1282.19 1991.17 999.85 1994.84 999.63 2030.59"/><polygon class="cls-4" points="1002.78 1516.04 1280.72 1513.6 1280.62 1479.12 1002.99 1481.48 1002.78 1516.04"/><polygon class="cls-4" points="1001.22 1771.14 1281.5 1768.05 1281.39 1732.99 1001.43 1736 1001.22 1771.14"/><polygon class="cls-4" points="1000.43 1900.32 1281.9 1896.89 1281.79 1861.53 1000.64 1864.87 1000.43 1900.32"/><polygon class="cls-4" points="998.82 2161.97 1282.7 2157.86 1282.59 2121.9 999.04 2125.92 998.82 2161.97"/><polygon class="cls-4" points="998.01 2294.48 1283.11 2290.03 1282.99 2253.76 998.24 2258.12 998.01 2294.48"/><polygon class="cls-4" points="997.19 2428.14 1283.51 2423.33 1283.4 2386.74 997.42 2391.46 997.19 2428.14"/><polygon class="cls-4" points="996.37 2562.95 1283.93 2557.78 1283.81 2520.88 996.6 2525.95 996.37 2562.95"/><polygon class="cls-4" points="649.63 897.78 923.59 896.86 923.89 863.68 650.24 864.52 649.63 897.78"/><polygon class="cls-4" points="647.41 1020.02 922.5 1018.8 922.8 985.35 648.02 986.48 647.41 1020.02"/><polygon class="cls-4" points="645.17 1143.28 921.41 1141.76 921.71 1108.02 645.78 1109.46 645.17 1143.28"/><polygon class="cls-4" points="642.91 1267.56 920.3 1265.73 920.6 1231.71 643.53 1233.46 642.91 1267.56"/><polygon class="cls-4" points="640.63 1392.88 919.18 1390.73 919.49 1356.43 641.26 1358.49 640.63 1392.88"/><polygon class="cls-4" points="636.02 1646.69 916.92 1643.9 917.24 1609.02 636.65 1611.72 636.02 1646.69"/><polygon class="cls-4" points="628.95 2035.53 913.46 2031.74 913.78 1995.96 629.6 1999.65 628.95 2035.53"/><polygon class="cls-4" points="638.34 1519.25 918.06 1516.79 918.37 1482.2 638.97 1484.57 638.34 1519.25"/><polygon class="cls-4" points="633.68 1775.2 915.78 1772.09 916.09 1736.91 634.32 1739.94 633.68 1775.2"/><polygon class="cls-4" points="631.33 1904.81 914.63 1901.36 914.94 1865.89 631.97 1869.24 631.33 1904.81"/><polygon class="cls-4" points="626.55 2167.36 912.29 2163.22 912.61 2127.14 627.21 2131.18 626.55 2167.36"/><polygon class="cls-4" points="624.14 2300.33 911.1 2295.84 911.43 2259.45 624.8 2263.84 624.14 2300.33"/><polygon class="cls-4" points="621.7 2434.45 909.91 2429.61 910.24 2392.9 622.37 2397.65 621.7 2434.45"/><polygon class="cls-4" points="619.24 2569.74 908.7 2564.53 909.03 2527.5 619.91 2532.61 619.24 2569.74"/></g><path class="cls-2" d="M519.07,1764.07c.36-15.41,16.18-28.09,35.57-28.09h733c19.65,0,38.95,13.35,38.95,29V3160.85c0,7.51-5.45,14.72-12.14,20s-16.61,8.28-26.07,8.26L522,3187.47c-9.54,0-18.88-3.09-25.55-8.5s-10.43-12.91-10.25-20.48Z" transform="translate(-468.03 -456.82)"/><polygon class="cls-4" points="590.86 1443.66 799.68 1443.44 801.34 1358.38 592.31 1358.38 590.86 1443.66"/><polygon class="cls-4" points="356.8 1443.62 565.4 1443.39 566.84 1358.38 358.02 1358.38 356.8 1443.62"/><polygon class="cls-4" points="122.97 1443.58 331.37 1443.35 332.57 1358.38 123.97 1358.38 122.97 1443.58"/><polygon class="cls-4" points="588.25 1596.33 796.71 1596.44 798.36 1511.94 589.7 1511.87 588.25 1596.33"/><polygon class="cls-4" points="354.59 1596.21 562.84 1596.32 564.26 1511.86 355.82 1511.79 354.59 1596.21"/><polygon class="cls-4" points="121.17 1596.1 329.21 1596.2 330.41 1511.79 122.17 1511.72 121.17 1596.1"/><polygon class="cls-4" points="585.65 1747.96 793.74 1748.13 795.39 1663.92 587.09 1663.79 585.65 1747.96"/><polygon class="cls-4" points="352.4 1747.76 560.28 1747.94 561.7 1663.77 353.62 1663.63 352.4 1747.76"/><polygon class="cls-4" points="119.38 1747.57 327.06 1747.74 328.25 1663.62 120.38 1663.48 119.38 1747.57"/><polygon class="cls-4" points="583.06 1899.06 790.79 1899.3 792.43 1815.38 584.5 1815.18 583.06 1899.06"/><polygon class="cls-4" points="350.21 1898.79 557.74 1899.03 559.15 1815.15 351.43 1814.95 350.21 1898.79"/><polygon class="cls-4" points="117.6 1898.52 324.92 1898.76 326.11 1814.93 118.59 1814.72 117.6 1898.52"/><polygon class="cls-4" points="580.47 2049.64 787.85 2049.94 789.48 1966.32 581.91 1966.05 580.47 2049.64"/><polygon class="cls-4" points="348.03 2049.29 555.2 2049.6 556.61 1966.01 349.24 1965.74 348.03 2049.29"/><polygon class="cls-4" points="115.82 2048.95 322.78 2049.25 323.97 1965.71 116.81 1965.44 115.82 2048.95"/><polygon class="cls-4" points="577.9 2199.7 784.91 2200.07 786.54 2116.73 579.33 2116.39 577.9 2199.7"/><polygon class="cls-4" points="345.86 2199.28 552.67 2199.65 554.07 2116.35 347.07 2116.01 345.86 2199.28"/><polygon class="cls-4" points="114.05 2198.86 320.65 2199.23 321.83 2115.97 115.04 2115.64 114.05 2198.86"/><polygon class="cls-4" points="575.34 2349.24 781.99 2349.68 783.61 2266.62 576.76 2266.22 575.34 2349.24"/><polygon class="cls-4" points="343.7 2348.74 550.15 2349.18 551.55 2266.17 344.9 2265.77 343.7 2348.74"/><polygon class="cls-4" points="112.29 2348.25 318.53 2348.69 319.71 2265.72 113.27 2265.32 112.29 2348.25"/><polygon class="cls-4" points="572.78 2498.26 779.08 2498.77 780.7 2416 574.2 2415.53 572.78 2498.26"/><polygon class="cls-4" points="341.54 2497.7 547.63 2498.2 549.03 2415.48 342.74 2415.01 341.54 2497.7"/><polygon class="cls-4" points="110.53 2497.13 316.42 2497.64 317.59 2414.95 111.51 2414.48 110.53 2497.13"/><polygon class="cls-4" points="570.23 2646.78 776.17 2647.35 777.79 2564.87 571.65 2564.33 570.23 2646.78"/><polygon class="cls-4" points="339.39 2646.14 545.13 2646.71 546.52 2564.27 340.58 2563.74 339.39 2646.14"/><polygon class="cls-4" points="108.78 2645.5 314.31 2646.07 315.48 2563.67 109.75 2563.14 108.78 2645.5"/><path class="cls-2" d="M2432.45,1797.41c.36-15.41,16.19-28.09,35.58-28.09h733c19.66,0,39,13.34,39,29V3194.19c0,7.51-5.45,14.71-12.14,20s-16.62,8.27-26.07,8.25l-766.41-1.66c-9.53,0-18.87-3.08-25.54-8.5s-10.43-12.9-10.25-20.48Z" transform="translate(-468.03 -456.82)"/><g class="cls-5"><polygon class="cls-4" points="2504.24 1476.99 2713.06 1476.77 2714.72 1391.71 2505.7 1391.71 2504.24 1476.99"/><polygon class="cls-4" points="2270.18 1476.95 2478.79 1476.73 2480.22 1391.71 2271.41 1391.71 2270.18 1476.95"/><polygon class="cls-4" points="2036.35 1476.91 2244.75 1476.69 2245.95 1391.71 2037.35 1391.71 2036.35 1476.91"/><polygon class="cls-4" points="2501.63 1629.67 2710.09 1629.77 2711.74 1545.27 2503.08 1545.2 2501.63 1629.67"/><polygon class="cls-4" points="2267.98 1629.55 2476.22 1629.65 2477.65 1545.2 2269.2 1545.13 2267.98 1629.55"/><polygon class="cls-4" points="2034.56 1629.43 2242.59 1629.54 2243.79 1545.12 2035.55 1545.05 2034.56 1629.43"/><polygon class="cls-4" points="2499.03 1781.29 2707.13 1781.47 2708.77 1697.26 2500.48 1697.12 2499.03 1781.29"/><polygon class="cls-4" points="2265.78 1781.1 2473.67 1781.27 2475.09 1697.11 2267 1696.97 2265.78 1781.1"/><polygon class="cls-4" points="2032.77 1780.9 2240.45 1781.08 2241.64 1696.95 2033.76 1696.82 2032.77 1780.9"/><polygon class="cls-4" points="2496.44 1932.39 2704.17 1932.63 2705.81 1848.72 2497.88 1848.51 2496.44 1932.39"/><polygon class="cls-4" points="2263.6 1932.12 2471.12 1932.36 2472.53 1848.49 2264.81 1848.29 2263.6 1932.12"/><polygon class="cls-4" points="2030.98 1931.85 2238.3 1932.09 2239.49 1848.26 2031.97 1848.06 2030.98 1931.85"/><polygon class="cls-4" points="2493.86 2082.97 2701.23 2083.28 2702.86 1999.65 2495.29 1999.38 2493.86 2082.97"/><polygon class="cls-4" points="2261.42 2082.63 2468.58 2082.93 2469.99 1999.35 2262.63 1999.08 2261.42 2082.63"/><polygon class="cls-4" points="2029.21 2082.28 2236.17 2082.59 2237.35 1999.05 2030.19 1998.78 2029.21 2082.28"/><polygon class="cls-4" points="2491.28 2233.03 2698.3 2233.4 2699.93 2150.06 2492.71 2149.73 2491.28 2233.03"/><polygon class="cls-4" points="2259.25 2232.61 2466.05 2232.98 2467.46 2149.69 2260.45 2149.35 2259.25 2232.61"/><polygon class="cls-4" points="2027.44 2232.19 2234.04 2232.57 2235.22 2149.31 2028.42 2148.97 2027.44 2232.19"/><polygon class="cls-4" points="2488.72 2382.57 2695.37 2383.01 2697 2299.96 2490.14 2299.56 2488.72 2382.57"/><polygon class="cls-4" points="2257.08 2382.08 2463.53 2382.52 2464.93 2299.51 2258.28 2299.1 2257.08 2382.08"/><polygon class="cls-4" points="2025.67 2381.59 2231.92 2382.03 2233.09 2299.05 2026.65 2298.65 2025.67 2381.59"/><polygon class="cls-4" points="2486.16 2531.6 2692.46 2532.1 2694.08 2449.34 2487.58 2448.87 2486.16 2531.6"/><polygon class="cls-4" points="2254.93 2531.03 2461.02 2531.54 2462.41 2448.81 2256.12 2448.34 2254.93 2531.03"/><polygon class="cls-4" points="2023.91 2530.47 2229.8 2530.97 2230.98 2448.29 2024.89 2447.82 2023.91 2530.47"/><polygon class="cls-4" points="2483.62 2680.11 2689.56 2680.68 2691.17 2598.2 2485.03 2597.67 2483.62 2680.11"/><polygon class="cls-4" points="2252.78 2679.47 2458.51 2680.04 2459.91 2597.6 2253.97 2597.07 2252.78 2679.47"/><polygon class="cls-4" points="2022.16 2678.84 2227.7 2679.41 2228.87 2597.01 2023.14 2596.47 2022.16 2678.84"/></g><path class="cls-1" d="M1703.74,2177.14c-59.82-187.83-175.56-337.52-312.67-425.51-122.56-78.67-210.87-201.18-243.56-342.7q-5.16-22.31-12.27-44.7c-72-225.9-269.29-364.74-440.77-310.13S442.3,1336.12,514.25,1562a553,553,0,0,0,58.58,126.72C649.13,1810,679,1955.36,650.92,2096c-25.1,125.68-18.29,267.19,26.56,408,66.89,210,203.71,372.37,362.12,454.1a550.4,550.4,0,0,1,158.69,122.72c74.35,83.47,179.14,122.71,275.41,92.05,103.86-33.08,168.75-138.25,173.41-261,2.65-69.43,19-137.49,45.59-201.83C1755.52,2558.19,1764.23,2367,1703.74,2177.14Z" transform="translate(-468.03 -456.82)"/><path class="cls-6" d="M831.06,1275.29c70,142.15,135.26,286.45,199,431.42,16,36.24,31.34,72.73,46.83,109.17l23.23,54.66L1123,1925.4c15,36.63,30.59,73.06,45.21,109.86l43.88,110.4c28.31,74,57.25,147.71,84.17,222.21,13.51,37.23,27.76,74.19,40.51,111.7l38.78,112.31c50.18,150.28,96.6,301.89,135.22,455.56l-6.64,1.74-33.29-113.87-8.26-28.47-9-28.27-18-56.5-17.94-56.52c-5.94-18.85-12.59-37.48-18.85-56.23-12.78-37.42-25.26-74.93-38.28-112.26-53-149-108.09-297.29-166.19-444.42-29.62-73.34-58.6-146.93-88.73-220.07l-22.45-54.92-22.91-54.72c-15.25-36.5-30.5-73-46.12-109.33q-45.93-109.42-93.5-218.15-47-109-95.68-217.23Z" transform="translate(-468.03 -456.82)"/><path class="cls-2" d="M2204.2,1803.79c-28-205.12-120.37-380.94-245.84-496.81-112.17-103.59-181.18-246.32-189.49-398.62q-1.32-24-4.63-48.47c-33.62-246.7-212-426.09-398.5-400.68s-310.36,246-276.74,492.71a582.83,582.83,0,0,0,37.63,141.69c56.87,139.23,61.57,295,7.43,435.43-48.39,125.45-66.74,273.06-45.78,426.85,31.26,229.36,143.1,422.09,291.66,535.35a578.41,578.41,0,0,1,141.49,155.7c61.64,99.82,162.56,159.4,267.24,145.13,112.93-15.39,198.64-112.41,225.45-238.49,15.17-71.35,44.19-138.79,83.15-200.52C2189.22,2207.33,2232.47,2011.19,2204.2,1803.79Z" transform="translate(-468.03 -456.82)"/><path class="cls-6" d="M1466.8,712.76c46.58,159.72,88,320.81,127.72,482.34,10,40.37,19.25,80.91,28.68,121.41l14.14,60.75,13.62,60.87c8.93,40.62,18.42,81.11,26.89,121.84l25.41,122.15c15.9,81.65,32.49,163.16,46.88,245.1,7.24,41,15.29,81.77,21.71,122.88l19.81,123.21c24.76,164.53,45.4,329.77,57.63,495.72l-7.14.6-13.89-123.82-3.4-30.95-4.17-30.87-8.47-61.71-8.35-61.71c-2.74-20.58-6.25-41.05-9.34-61.58-6.46-41-12.59-82.09-19.31-123.06-27.94-163.73-58.06-327.1-91.54-489.82-17.36-81.23-34-162.6-52-243.72l-13.28-60.87-13.79-60.76c-9.17-40.52-18.34-81-27.92-121.45q-27.69-121.5-57.22-242.6c-19.28-80.82-39.33-161.48-59.62-242Z" transform="translate(-468.03 -456.82)"/><path class="cls-7" d="M3061.22,3213.66H1433.57a23,23,0,0,1-23-23V991.14a23,23,0,0,1,23-23H3061.22a23,23,0,0,1,23,23V3190.63A23,23,0,0,1,3061.22,3213.66Z" transform="translate(-468.03 -456.82)"/><path class="cls-8" d="M2799.32,2917.86H1691.9a76,76,0,0,1-76-76V1381.47a76,76,0,0,1,76-76H2799.32a76,76,0,0,1,76,76V2841.85A76,76,0,0,1,2799.32,2917.86Z" transform="translate(-468.03 -456.82)"/><path class="cls-7" d="M2757.42,2805.69H1734.8a22.8,22.8,0,0,1-22.8-22.8v-1322a22.8,22.8,0,0,1,22.8-22.8H2757.42a22.8,22.8,0,0,1,22.8,22.8v1322A22.8,22.8,0,0,1,2757.42,2805.69Z" transform="translate(-468.03 -456.82)"/><path class="cls-9" d="M2567.82,1948.6l-644.17,10.71c-49,.81-88.92,38.94-88.92,85.15v405.68c0,46.21,39.89,82.07,88.92,80.1l644.17-25.87c46.27-1.86,83.65-39.56,83.65-84.22V2028.07C2651.47,1983.41,2614.09,1947.83,2567.82,1948.6Z" transform="translate(-468.03 -456.82)"/><path class="cls-9" d="M2600.43,1875.23c-19.51.29-35.35-14.77-35.35-33.63v-88.79c0-89.07-75.35-161.32-168.62-161l-209.85.6c-95.67.28-174.07,74.67-174.07,165.82V1849c0,19.3-16.61,35.2-37.13,35.51s-37.25-15.15-37.25-34.51V1758.9c0-130.1,112.09-236,248.45-236h209.85c132.5,0,239.21,102.81,239.21,229.17v88.53C2635.67,1859.46,2619.9,1874.94,2600.43,1875.23Z" transform="translate(-468.03 -456.82)"/><path class="cls-10" d="M2350,2173.43c0-45.08-39.36-80.48-87.21-77.23-42.3,2.88-77.29,36.76-79.58,77.21-1.77,31.39,15.48,58.53,41.71,72.25A28.3,28.3,0,0,1,2239.4,2276L2221,2379.19c-2.34,13.14,8.22,24.69,22.13,24.19l47.26-1.69c13.83-.5,24.32-12.75,22-25.68L2294,2273.75c-2.19-12.19,4.15-24.31,15.33-31C2333.68,2228.21,2350,2202.42,2350,2173.43Z" transform="translate(-468.03 -456.82)"/><path class="cls-11" d="M1056.18,3217.59a9.81,9.81,0,0,0-.27-2.68c-13.36-53-79.66-85.95-79.66-85.95L950,3131c-15.11,46.68-13.16,75.31-10.74,88.06.07.36.18.7.27,1C961.18,3222.06,1005.79,3223.32,1056.18,3217.59Z" transform="translate(-468.03 -456.82)"/><path class="cls-12" d="M939.51,3220.12a11.39,11.39,0,0,0,8.34,8.42c30.83,6.48,79.83,1.27,100.4-1.42,4.54-.6,7.86-4.79,7.93-9.53C1005.79,3223.32,961.18,3222.06,939.51,3220.12Z" transform="translate(-468.03 -456.82)"/><path class="cls-13" d="M939.42,3091.89l11.12,53.57a8.76,8.76,0,0,0,7.49,7.2,74.25,74.25,0,0,0,17.24-.27c5.74-.84,9.73-6.68,8.72-12.94l-7.74-47.56Z" transform="translate(-468.03 -456.82)"/><path class="cls-12" d="M1170,3219.44c-29-.81-44-4.23-51.78-7.4,0,2.89,0,5.82.09,8.87a5.72,5.72,0,0,0,5.47,5.82l159.31-1c5.09,0,8.06-5.93,5.86-10.59C1268,3216.84,1214.81,3220.7,1170,3219.44Z" transform="translate(-468.03 -456.82)"/><path class="cls-11" d="M1288.91,3215.11a7.72,7.72,0,0,0-.64-1.2c-14.07-19.66-49.9-58.81-120.71-75.78l-34-1.08s-15.12,26.29-15.41,75c7.76,3.17,22.77,6.59,51.78,7.4C1214.81,3220.7,1268,3216.84,1288.91,3215.11Z" transform="translate(-468.03 -456.82)"/><path class="cls-14" d="M1125.78,3087.15c.54,2.51,7.6,40.62,10.34,55.4a7.39,7.39,0,0,0,6.64,6.27c5.82.32,15.2.36,23.27-1.83,4.35-1.18,7.28-5.62,7-10.54l-3.8-60.29Z" transform="translate(-468.03 -456.82)"/><path class="cls-11" d="M1100,2383.41s46.73,321.09,80.45,703.19c.63,7.12-5,13.31-12,14.78-10.3,2.17-25.45,4.75-38,4.4a14.08,14.08,0,0,1-13.42-11.75c-11.48-67.37-93.46-428.94-115-508.52,0,0-24.72,338-16.82,513.4a8.3,8.3,0,0,1-7.33,8.64,139.72,139.72,0,0,1-30.49-.08,11.12,11.12,0,0,1-9.91-9.44c-8.19-57-55.28-396.41-53.28-640.89.11-13.79,16.17-127.07,16.17-127.07Z" transform="translate(-468.03 -456.82)"/><path class="cls-15" d="M1118.15,1843.43l6.25,168a462.62,462.62,0,0,0,50.8,14.43c10.08-32.45,32.26-72.26,50.44-101.87C1158.88,1900.41,1118.15,1843.43,1118.15,1843.43Z" transform="translate(-468.03 -456.82)"/><path class="cls-16" d="M893.41,2401.91a13.23,13.23,0,0,1-8.68-11.13c-6.21-60.29-36.3-434.09,153.65-587.86,0,0,10.89-28.5,100.43,41.56s41.6,143.49,20.16,244.77c-25.94,122.56-71.45,222.75-51.31,298.17a10.46,10.46,0,0,1-6.4,12.53C1031.7,2425.59,962.42,2426.44,893.41,2401.91Z" transform="translate(-468.03 -456.82)"/><path class="cls-17" d="M1112.47,1690.92c-.06,5.32-75.9,113-75.9,113s13.61,26.82,78.61,48.59l56.1-115.35Z" transform="translate(-468.03 -456.82)"/><path class="cls-15" d="M1074.9,2059.56a2.45,2.45,0,0,1-1.38-.42c-60.59-40.94-89.09-107-89.37-107.68a2.46,2.46,0,1,1,4.53-1.93c.28.65,28.25,65.43,87.6,105.53a2.46,2.46,0,0,1-1.38,4.5Z" transform="translate(-468.03 -456.82)"/><path class="cls-15" d="M1165.15,1968a2.47,2.47,0,0,1-2.07-1.13c-.18-.28-18.69-29.09-53.95-92.23-10.84-19.41-25.09-31.7-42.35-36.53-28.58-8-56.13,7.34-56.4,7.49a2.46,2.46,0,1,1-2.44-4.28c1.19-.68,29.53-16.53,60.12-8,18.59,5.19,33.86,18.27,45.37,38.89,35.17,63,53.61,91.69,53.79,92a2.45,2.45,0,0,1-2.07,3.79Z" transform="translate(-468.03 -456.82)"/><path class="cls-18" d="M1172.19,1629.19s27,62,28.8,94.54,8.83,53.65-28.8,60.2-69.32-12.19-86.49-44.6c0,0-26.9-49.95-20.87-70.4S1172.19,1629.19,1172.19,1629.19Z" transform="translate(-468.03 -456.82)"/><path class="cls-11" d="M1098.56,1716l2.14-.94a5.16,5.16,0,0,0,2.52-7.09c-5.3-10.25-15.65-33.75-2.28-39.23,17.22-7.06,85.43-21,100.14-45.17,14.15-23.26,1.62-53.29-17.22-61.83a2.59,2.59,0,0,0-3.39,1.11l-1.57,3a2.56,2.56,0,0,1-4.72-.49h0a2.54,2.54,0,0,0-4.6-.66c-4.53,7.24-16.74,19-49.4,25-46.41,8.57-77.1,27.35-77.87,59.43a2.55,2.55,0,0,1-4,2.1c-3.43-2.08-8.92-3.06-16.25,3.1-12.74,10.72-7.53,38.52,20.42,61.39a2.54,2.54,0,0,1-.12,4.1c-5.07,3.3-12.62,11.14,6.95,21.6,20.24,10.82,35.35,9.94,41.17,9a2.55,2.55,0,0,0,2.07-3.08l-6.21-28.19a2.55,2.55,0,0,1,2.49-3.1h9.68Z" transform="translate(-468.03 -456.82)"/><path class="cls-19" d="M1099.73,1722s-10.3-39.6-28.06-28.5,9.22,44.38,23.49,45.86Z" transform="translate(-468.03 -456.82)"/><path class="cls-20" d="M1449.19,1830.79s-13.52-24-12.66-35.63-6.4-28.77,1.32-27.5,9.32.23,11.42,14.21S1475.75,1856.93,1449.19,1830.79Z" transform="translate(-468.03 -456.82)"/><path class="cls-21" d="M1451.74,1792.66l-.31,47.91c-91.58,98.87-165.69,104.69-225.8,83.44-18.17,29.61-40.35,69.42-50.43,101.87,244.54,53.91,302.12-170.9,302.12-170.9,33.12-13.72,39.8-21.74,38.38-30.73Z" transform="translate(-468.03 -456.82)"/><path class="cls-22" d="M1522.16,1745.13c-7.82-3.18-23.11-32.34-26-22.74s1.24,22.74,0,26.81-20.3,51-16.49,61.44c2.74,7.52,17.88,6.41,20.19,18.71a7.87,7.87,0,0,0,15.65,0C1515.77,1827.73,1530,1748.3,1522.16,1745.13Z" transform="translate(-468.03 -456.82)"/><path class="cls-10" d="M1272.56,1645.34c-61.75,122.13-12.8,271.19,109.33,332.94,99.27,50.18,216.32,27.24,289.83-48.69l424.33,214.55a23.07,23.07,0,0,0,22.21-.77l41.5-24.72a22.84,22.84,0,0,0,2-1.39c.19-.14.36-.28.54-.43.48-.38.95-.78,1.39-1.2a6.14,6.14,0,0,0,.45-.43,22.9,22.9,0,0,0,1.57-1.7l0,0a23.06,23.06,0,0,0,3.61-23.19l-33.72-84.54a23.07,23.07,0,0,0-11-12l-42.5-21.49-11.25,22.25L2034.38,1976l11.25-22.25-34.16-17.27L2001.12,1957l-44.37-22.44,10.34-20.46-16.53-8.36-5.33,10.53L1908,1897.41l5.32-10.53-28.93-14.63-11.25,22.25-20.67-10.45,11.25-22.25-17.91-9L1834.6,1875l-35.82-18.11,11.25-22.25-50.35-25.45h0l-21.57-10.9c17.57-104.21-33.34-212.08-132.61-262.27C1483.37,1474.26,1334.31,1523.21,1272.56,1645.34Zm144.58,16.87a50.17,50.17,0,1,1-67.42,22.14A50.18,50.18,0,0,1,1417.14,1662.21Z" transform="translate(-468.03 -456.82)"/><path class="cls-23" d="M1616.51,1720.18l201.16,101.7-11.25,22.25,35.82,18.11,11.25-22.25,17.91,9.06-11.25,22.24,20.67,10.45,11.24-22.24,28.94,14.63-5.33,10.53,37.2,18.81,5.33-10.53,16.53,8.35-10.35,20.47,44.38,22.43,10.35-20.46,34.15,17.27L2042,1963.25l36.51,18.46,11.25-22.25,42.5,21.49a23.15,23.15,0,0,1,11,12l33.72,84.54a23.07,23.07,0,0,1-9.62,28.36l-41.5,24.72a23,23,0,0,1-22.22.77l-512.23-259Z" transform="translate(-468.03 -456.82)"/><path class="cls-9" d="M1389.53,1965.52c122.13,61.75,271.19,12.8,332.94-109.33s12.8-271.19-109.33-332.93-271.19-12.8-332.94,109.32S1267.4,1903.77,1389.53,1965.52Zm-10-226.51a50.17,50.17,0,1,1,67.42-22.14A50.18,50.18,0,0,1,1379.49,1739Z" transform="translate(-468.03 -456.82)"/><path class="cls-10" d="M1679.36,1916.84l424.33,214.54a23,23,0,0,0,22.21-.77l41.5-24.72a23,23,0,0,0,11-16.84c-38.67-41.9-406.29-202.43-420-235.47-4.89-11.75-5.73-29.55,8.93-57.15l-21.57-10.91c17.57-104.2-33.34-212.07-132.61-262.26-122.13-61.75-271.19-12.8-332.94,109.33s-12.8,271.19,109.33,332.93C1488.79,2015.71,1605.85,1992.77,1679.36,1916.84Zm-254.59-267.38a50.17,50.17,0,1,1-67.41,22.13A50.16,50.16,0,0,1,1424.77,1649.46Z" transform="translate(-468.03 -456.82)"/><path class="cls-9" d="M1411.47,1922.12c98.16,49.63,218,10.29,267.6-87.87s10.29-218-87.87-267.59-218-10.29-267.6,87.87S1313.31,1872.49,1411.47,1922.12Zm-32-183.11a50.17,50.17,0,1,1,67.42-22.14A50.18,50.18,0,0,1,1379.49,1739Z" transform="translate(-468.03 -456.82)"/><path class="cls-24" d="M1074.9,2059.56s233.35,78.12,363.87-21.26a37,37,0,0,1,28.35-7.21l49.87,8.12a39.88,39.88,0,0,0,45.38-30.87c2.57-11.82,3.81-24.75,1.19-35.85l-94.14-5.68,2.7-12.22s-41.61,10.18-42.45,42.73c0,0-97.59,63.93-275.6-35.3C1154.07,1962,1084.75,2016.27,1074.9,2059.56Z" transform="translate(-468.03 -456.82)"/><path class="cls-10" d="M2753.51,1005a4.63,4.63,0,0,0,0-5.35L2721.08,954A244,244,0,0,0,2739,877l49.22-26.65a4.62,4.62,0,0,0,2.34-4.8l-11-66.27a4.6,4.6,0,0,0-3.77-3.79l-55.18-9.34a244.12,244.12,0,0,0-41.81-67.08l16-53.68a4.59,4.59,0,0,0-1.74-5l-54.63-39.1a4.6,4.6,0,0,0-5.34,0l-45.66,32.43a243.9,243.9,0,0,0-77-17.92l-26.66-49.21a4.59,4.59,0,0,0-4.8-2.35l-66.27,11a4.58,4.58,0,0,0-3.78,3.77l-9.35,55.18a244.12,244.12,0,0,0-67.08,41.81l-53.68-16a4.59,4.59,0,0,0-5.05,1.74l-39.09,54.63a4.6,4.6,0,0,0,0,5.34l32.43,45.66a243.9,243.9,0,0,0-17.92,77L2200,871a4.59,4.59,0,0,0-2.35,4.8l11,66.27a4.59,4.59,0,0,0,3.77,3.78l55.19,9.35a243.88,243.88,0,0,0,41.81,67.08l-16,53.68a4.59,4.59,0,0,0,1.73,5l54.63,39.09a4.61,4.61,0,0,0,5.35,0l45.65-32.43a244.23,244.23,0,0,0,77,17.92l26.65,49.21a4.62,4.62,0,0,0,4.8,2.35l66.27-11a4.61,4.61,0,0,0,3.79-3.77l9.34-55.19a243.88,243.88,0,0,0,67.08-41.81l53.68,16a4.59,4.59,0,0,0,5-1.73Z" transform="translate(-468.03 -456.82)"/><path class="cls-25" d="M2488.49,927.94a67.48,67.48,0,1,1,9.92.1A67.61,67.61,0,0,1,2488.49,927.94Zm-27.86-106.81a51.78,51.78,0,1,0,37.74-12.08,53.26,53.26,0,0,0-7.68-.07A51.36,51.36,0,0,0,2460.63,821.13Z" transform="translate(-468.03 -456.82)"/><path class="cls-25" d="M2503.21,1025.46a169.14,169.14,0,0,0,16.95-1.94h0c1.78-.29,3.55-.62,5.32-1a166.43,166.43,0,0,0,25.59-7.24l.34-.13,1-.36,1.87-.73a3.94,3.94,0,0,0,2.48-3.9,4.32,4.32,0,0,0-.27-1.21,4,4,0,0,0-5.11-2.21A158.29,158.29,0,0,1,2337,885.6a162,162,0,0,1-1.85-16.17,158.21,158.21,0,0,1,132-165.73c86.07-14.27,167.63,44.12,181.9,130.15a158.46,158.46,0,0,1-8.82,83.79,3.83,3.83,0,0,0-.27,1.69,3.94,3.94,0,0,0,7.59,1.19,166.26,166.26,0,0,0,9.27-88c-15-90.32-100.67-151.61-191-136.64a166.08,166.08,0,0,0-138.58,174,169.4,169.4,0,0,0,1.94,17,166.07,166.07,0,0,0,174,138.57Z" transform="translate(-468.03 -456.82)"/><path class="cls-10" d="M3152.61,1159.29a3.1,3.1,0,0,0,0-3.58l-21.7-30.55a163.14,163.14,0,0,0,12-51.51l32.93-17.84a3.07,3.07,0,0,0,1.57-3.21l-7.35-44.35a3.09,3.09,0,0,0-2.53-2.53l-36.92-6.25a163.1,163.1,0,0,0-28-44.89l10.68-35.92a3.06,3.06,0,0,0-1.16-3.38l-36.56-26.16a3.08,3.08,0,0,0-3.57,0l-30.55,21.71a163.2,163.2,0,0,0-51.52-12l-17.83-32.94a3.1,3.1,0,0,0-3.21-1.57l-44.35,7.36a3.07,3.07,0,0,0-2.53,2.52l-6.26,36.93a163.19,163.19,0,0,0-44.88,28L2835,928.43a3.06,3.06,0,0,0-3.38,1.16l-26.16,36.55a3.08,3.08,0,0,0,0,3.58l21.71,30.55a163.14,163.14,0,0,0-12,51.51l-32.94,17.84a3.1,3.1,0,0,0-1.57,3.21l7.36,44.35a3.07,3.07,0,0,0,2.52,2.53l36.93,6.25a163.1,163.1,0,0,0,28,44.89l-10.68,35.92a3.06,3.06,0,0,0,1.16,3.38l36.55,26.16a3.08,3.08,0,0,0,3.58,0l30.55-21.71a163.14,163.14,0,0,0,51.51,12l17.84,32.94a3.1,3.1,0,0,0,3.21,1.57l44.35-7.36a3.07,3.07,0,0,0,2.53-2.52l6.25-36.93a163.1,163.1,0,0,0,44.89-28l35.92,10.68a3.06,3.06,0,0,0,3.38-1.16Z" transform="translate(-468.03 -456.82)"/><path class="cls-25" d="M2975.21,1108.55a45.78,45.78,0,1,1,6.81.07A47,47,0,0,1,2975.21,1108.55Zm-29.92-48.64a33.83,33.83,0,0,0,30.92,36.52h0a33.84,33.84,0,0,0,5.61-67.44,34.41,34.41,0,0,0-5,0A33.89,33.89,0,0,0,2945.29,1059.91Z" transform="translate(-468.03 -456.82)"/><path class="cls-25" d="M2985.45,1176.43q5.76-.37,11.57-1.33a115.13,115.13,0,0,0,22.53-6.12l1-.39a6.07,6.07,0,0,0,3.84-6,6.18,6.18,0,0,0-.42-1.86,6.09,6.09,0,0,0-7.89-3.41,102.89,102.89,0,0,1-21,5.81h0l-1.19.19a101.36,101.36,0,0,1-49.92-4.69,102.67,102.67,0,0,1-24.47-12.7l-.19-.13-.56-.41a101.68,101.68,0,0,1-41.43-66.51,104.24,104.24,0,0,1-1.2-10.47,102.4,102.4,0,0,1,203.22-23,102.35,102.35,0,0,1-5.72,54.23,6.08,6.08,0,1,0,11.32,4.46,114.31,114.31,0,0,0,7.71-49.12,114.56,114.56,0,0,0-228.67,14.21,117.26,117.26,0,0,0,1.34,11.71A114.71,114.71,0,0,0,2985.45,1176.43Z" transform="translate(-468.03 -456.82)"/></g></svg>