<?xml version="1.0" encoding="utf-8"?>
<!-- Generator: Adobe Illustrator 25.0.0, SVG Export Plug-In . SVG Version: 6.00 Build 0)  -->
<svg version="1.1" id="Icons" xmlns="http://www.w3.org/2000/svg" xmlns:xlink="http://www.w3.org/1999/xlink" x="0px" y="0px"
	 viewBox="0 0 800 800" style="enable-background:new 0 0 800 800;" xml:space="preserve">
<style type="text/css">
	.st0{fill:#9AC197;}
</style>
<path class="st0" d="M400,50C207.5,50,50,207.5,50,400s157.5,350,350,350s350-157.5,350-350S592.5,50,400,50z M472.5,417.5l-105,105
	c-5,5-12.5,7.5-17.5,7.5s-12.5-2.5-17.5-7.5c-10-10-10-25,0-35L420,400l-87.5-87.5c-10-10-10-25,0-35c10-10,25-10,35,0l105,105
	C482.5,392.5,482.5,407.5,472.5,417.5z"/>
</svg>
