<svg id="Camada_1" data-name="Camada 1" xmlns="http://www.w3.org/2000/svg" viewBox="0 0 212.12 377.29"><defs><style>.cls-1{fill:#81a17a;}.cls-2{fill:#d5e1be;}</style></defs><path class="cls-1" d="M532.49,316.62A113.85,113.85,0,0,0,519.6,290c-4.15-6.29-12.2-18.25-26.69-27.77a64.53,64.53,0,0,0-15.63-7.72A59.43,59.43,0,0,0,459,251.7a2.79,2.79,0,0,0-2.46.74,2.7,2.7,0,0,0-.67,2.13,42.84,42.84,0,0,0,1.6,9.83c2.47,8.65,7.06,14.26,11.68,19.79A75.71,75.71,0,0,0,484,298.28c8.46,6,11.2,5.13,23.55,13.1,8.71,5.62,10.74,8.25,12,10.56,1,1.78,2.89,5.83,2.66,16.12-.2,9.13-1.83,12.44-3.34,21.66-1.24,7.59-2.81,17.19-1.19,28.94,1.14,8.28,3.69,16.32,5.68,22.62,1.25,3.94,2.41,7.19,3.26,9.44a64.28,64.28,0,0,0-12.51,1.64c-23.81,5.56-37.84,23.44-46,33.87a121.11,121.11,0,0,0-24,54.81c-1.47,9-4.2,27.15,2.21,48.85,0,0,12.14,41.05,46.81,57.54a13.06,13.06,0,0,0,1.87.68c.35.09,4,1,6-.17,2.24-1.41,1.91-5.61,1.87-7-.14-5.71,3.71-10.73,16.17-23.83,15-15.79,23.26-23,25.19-25.19a111.3,111.3,0,0,0,24-45.62A102.66,102.66,0,0,0,570.45,477a96.74,96.74,0,0,0-10.71-32c-2.81-5.09-6.17-10-8.29-13-8.05-11.65-11.18-13.65-15-21.77a69.94,69.94,0,0,1-4.85-14.49,87.66,87.66,0,0,1-2.24-17.87,77,77,0,0,1,1.21-17.3c.42-2.11,2.1-10.11,8.69-22.08C548.65,321.38,560,310.84,567,304.4a137.07,137.07,0,0,1,23-16.17c7.11-4,8.09-3.7,8.34-3.4,1.38,1.68-11.27,14.19-12.76,15.66,0,0-21,20.69-30.47,33.36-.37.49-1,1.3-.68,1.87,1.38,2.85,23.2-2.67,41.36-13.1C612,313.33,622,302,628.49,294.53c7.07-8.13,10.72-14.27,18-26.55,0,0,4-6.66,7.49-20.6.4-1.56.56-2.37.17-3.23-2.71-6-26.58-1.67-42.55,3.57,0,0-30.8,10.11-54.3,34.22a155.09,155.09,0,0,0-13.23,15.72A141.71,141.71,0,0,0,532.49,316.62Z" transform="translate(-442.3 -241.25)"/><path class="cls-2" d="M523.13,434.62c-10.9-.1-18.88,5.75-25,10.38-6.77,5.1-10.58,10-16,16.85-5,6.34-11,14-16.34,25.7a112.34,112.34,0,0,0-9.37,32.17c-.89,6.75-1.95,14.82-.34,25.37,1.94,12.64,6.52,20.94,12.43,31.65a52.48,52.48,0,0,0,14.13,16.86c4.46,3.38,6.42,3.57,7.74,3.4,4.53-.59,5.62-6,11.92-13.19,3.53-4,3.69-2.88,11.74-10a192.49,192.49,0,0,0,15.75-15.66,145,145,0,0,0,13.1-16.51,93.35,93.35,0,0,0,14-39.32c.56-4.69,2.62-25-6.47-46.3-5.27-12.34-10.66-16.5-14.64-18.55A27.46,27.46,0,0,0,523.13,434.62Z" transform="translate(-442.3 -241.25)"/></svg>